PathFileType	4	(X/Y/Z)	C:\Users\chris\Documents\GitHub\baseballds\vids\pitch6_Sports2D\pitch6_Sports2D_m_person00.trc
DataRate	CameraRate	NumFrames	NumMarkers	Units	OrigDataRate	OrigDataStartFrame	OrigNumFrames
30	30	7	22	m	30	0	186
Frame#	Time	Hip			RHip			RKnee			RAnkle			RBigToe			RSmallToe			RHeel			LHip			LKnee			LAnkle			LBigToe			LSmallToe			LHeel			Neck			Head			Nose			RShoulder			RElbow			RWrist			LShoulder			LElbow			LWrist		
		X1	Y1	Z1	X2	Y2	Z2	X3	Y3	Z3	X4	Y4	Z4	X5	Y5	Z5	X6	Y6	Z6	X7	Y7	Z7	X8	Y8	Z8	X9	Y9	Z9	X10	Y10	Z10	X11	Y11	Z11	X12	Y12	Z12	X13	Y13	Z13	X14	Y14	Z14	X15	Y15	Z15	X16	Y16	Z16	X17	Y17	Z17	X18	Y18	Z18	X19	Y19	Z19	X20	Y20	Z20	X21	Y21	Z21	X22	Y22	Z22
0	0.0	4.647157256869202	0.662227236271958	0.0	4.4934012775020316	0.4498190341061085	0.0	5.0880518483619035	-0.05270719650941024	0.0	5.580556271059132	-0.4913301070521846	0.0	5.747699309283652	-0.7399994098234068	0.0	5.627326842008392	-0.7952024011602313	0.0	5.725104865223344	-0.52194414025991	0.0	4.898502803910178	0.7809555409871723	0.0	5.624917292641723	0.40807374711289146	0.0	6.268108566263127	0.10085162760100506	0.0	6.399684011931907	-0.13644209342963148	0.0	6.529169637988668	-0.021685947303199015	0.0	6.353610049003448	0.05008024361726847	0.0	3.7922364327994904	1.3534101595968637	0.0	3.464690992796097	1.7119445534619968	0.0	3.855237711768482	1.7041631241144974	0.0	3.566460233738548	0.9141649229077325	0.0	3.8470466536697336	0.4925646614436924	0.0	4.198260059900545	0.5325013628284067	0.0	4.279770331670139	1.5527678792413178	0.0	4.842807519435737	1.3922128403004022	0.0	5.312020871010401	1.2889951590454025	0.0
1	0.03333333333333333	4.639632399374343	0.642169743212186	0.0	4.473880598826331	0.4423828914728025	0.0	5.082888556052923	-0.056059058595457636	0.0	5.5761101244363545	-0.49197728693839043	0.0	5.762757438385132	-0.7218097535975497	0.0	5.634658710299603	-0.787127526443017	0.0	5.705317006995975	-0.5144961884003613	0.0	4.892970281318034	0.7770947403247175	0.0	5.607959382643976	0.3998187073327242	0.0	6.26784931481403	0.09090228677005806	0.0	6.392223291444804	-0.16398706242713082	0.0	6.524349406682743	-0.042009186128679654	0.0	6.355550627483112	0.049774391211113114	0.0	3.7636293120858753	1.323574552417902	0.0	3.4577271904891567	1.6896982322157748	0.0	3.8385758316664145	1.6553659738005093	0.0	3.5520476356856174	0.8829534963543385	0.0	3.83752974371406	0.47507672017080704	0.0	4.205642439982335	0.5477580824380244	0.0	4.255762817606781	1.5224325769801426	0.0	4.7977365554081315	1.3475623501806895	0.0	5.24257300245196	1.2865460701772917	0.0
2	0.06666666666666667	4.629966706862994	0.6321399384440238	0.0	4.454471036624965	0.44057065595660316	0.0	5.071563902273875	-0.060341617162195306	0.0	5.5679130524043146	-0.4924027982244467	0.0	5.775749992666494	-0.7074257310662534	0.0	5.640370829315941	-0.7806103370178651	0.0	5.691932866943557	-0.5165690349088045	0.0	4.8756849308271395	0.7770287628727779	0.0	5.590755199890004	0.38996634380995127	0.0	6.267470222423893	0.08715333328551621	0.0	6.389035935796873	-0.16285027578310482	0.0	6.518250401666489	-0.042269365637345735	0.0	6.362375489037881	0.046742646534570546	0.0	3.7449129925646276	1.2994515708285561	0.0	3.4328871081007506	1.6687143301032445	0.0	3.8136305947256077	1.597020870490114	0.0	3.535998580384554	0.8593062509426234	0.0	3.8379534168778897	0.45417764383131193	0.0	4.214080678696866	0.560409391132961	0.0	4.23362214747568	1.4988588711836517	0.0	4.756212560882556	1.3041170695102013	0.0	5.182588369068472	1.264961737081471	0.0
3	0.1	4.618398672701817	0.6283884300178845	0.0	4.434079097254611	0.4414696610738495	0.0	5.058566792578181	-0.0648346386284091	0.0	5.538813189981503	-0.4814473802320822	0.0	5.786356557876474	-0.6997626546774285	0.0	5.6461257319881035	-0.7769837458470865	0.0	5.6886998231698716	-0.5256313535974173	0.0	4.8518733006871635	0.7785973720388939	0.0	5.578871879475431	0.3815051447618694	0.0	6.251321835461443	0.10024653149581254	0.0	6.37980302043711	-0.09295082988045583	0.0	6.489410709272671	0.009069856255634523	0.0	6.369743183010098	0.0427271505826762	0.0	3.745504787945501	1.2712153482644983	0.0	3.3994298422976352	1.6491421651204723	0.0	3.7917025944021225	1.5063233466175412	0.0	3.5189456703864552	0.8416060771487021	0.0	3.848442464553883	0.43046628599570225	0.0	4.228074717490952	0.5736056343481222	0.0	4.217860301133329	1.483322072159655	0.0	4.726935903049903	1.2652762107475326	0.0	5.129764962348374	1.2178251231343125	0.0
4	0.13333333333333333	4.608071834804794	0.6221033435748825	0.0	4.413533393785695	0.43996785017586376	0.0	5.052113415347233	-0.06839812145645578	0.0	5.480831571452972	-0.45261284925729206	0.0	5.7935514026984425	-0.69785633242562	0.0	5.653368206401869	-0.7763039881536168	0.0	5.6957726161327455	-0.5334068958821782	0.0	4.835682488648065	0.7778179522163001	0.0	5.577878833034227	0.3766879397784787	0.0	6.2093461604162075	0.13256866773051634	0.0	6.3550444777441	0.05095211362988041	0.0	6.427393305846947	0.11835819188868317	0.0	6.370132446884394	0.040376473612574584	0.0	3.764076485920345	1.2271228365128621	0.0	3.37762303771778	1.6274541782131677	0.0	3.7857051216519237	1.376157336141167	0.0	3.5034501345767306	0.8232156642663929	0.0	3.8623447115684675	0.40796704390301003	0.0	4.2502344024630405	0.5916129338059083	0.0	4.210952223981372	1.4709580247852632	0.0	4.714235736296595	1.2310561049357147	0.0	5.069656560790003	1.1489925216301573	0.0
5	0.16666666666666666	4.604780463756746	0.6103345111881798	0.0	4.399838280925575	0.43384674421509284	0.0	5.05116819479909	-0.07158279766627029	0.0	5.429943024125056	-0.42543814502155797	0.0	5.797074126539737	-0.6980505516453845	0.0	5.661356984553835	-0.7772141459803757	0.0	5.709267176021377	-0.5370235259220737	0.0	4.833306457354473	0.7709506993936295	0.0	5.5850384018169885	0.3737190542279441	0.0	6.166733764829565	0.16362097981591467	0.0	6.331819187965447	0.17788862101601305	0.0	6.372221358279544	0.2162332329437773	0.0	6.3631117227031515	0.03965780543727971	0.0	3.780459794251914	1.180817486604035	0.0	3.371251729186698	1.6012868771860578	0.0	3.785173128102172	1.258156759722281	0.0	3.4929586897063563	0.8004079295409519	0.0	3.8745407273755625	0.38938339358709706	0.0	4.2798871426067855	0.6136384729454714	0.0	4.211118496912002	1.4561469721196738	0.0	4.713070244733936	1.1989054102354175	0.0	4.995237796870816	1.071754200604602	0.0
6	0.2	4.613602215505851	0.5953424911073918	0.0	4.402100470674614	0.422719351981496	0.0	5.048112168690475	-0.07569887620621986	0.0	5.441376747631084	-0.43053026146529705	0.0	5.798809456035151	-0.6980540134214753	0.0	5.668668961262155	-0.7782888208076334	0.0	5.723197804289103	-0.5385768941696003	0.0	4.841685741774449	0.755117346536024	0.0	5.592560379678282	0.3705264462525536	0.0	6.164876092621615	0.16471394666544914	0.0	6.340696445790573	0.16136566391697535	0.0	6.38351343389751	0.2040564558071565	0.0	6.354156812796552	0.03938994467950941	0.0	3.7708646935815477	1.1631954559217077	0.0	3.370926327581654	1.57482792412357	0.0	3.768798726273072	1.2314875214842664	0.0	3.490676390561245	0.7750793567767037	0.0	3.8831500098257252	0.3755531664491392	0.0	4.314214279383703	0.6343981339300129	0.0	4.2158047002375145	1.4380869283823488	0.0	4.716917124841144	1.1708631824316789	0.0	4.919434807864191	1.00760730198133	0.0
